<?xml version="1.0" encoding="UTF-8"?>
<svg width="1600" height="520" viewBox="0 0 1600 520" fill="none" xmlns="http://www.w3.org/2000/svg" role="img" aria-label="Dhaya Balusamy — hero">
  <defs>
    <style><![CDATA[
      .mono { font-family: ui-monospace, SFMono-Regular, Menlo, Monaco, Consolas, "Liberation Mono", "Courier New", monospace; }
      .title { font-size: 66px; font-weight: 900; letter-spacing: 0.4px; fill: #F4F6F8; }
      .sub { font-size: 20px; fill: rgba(244,246,248,0.82); }
      .nav { font-size: 16px; fill: rgba(244,246,248,0.78); }
      .navActive { font-size: 16px; fill: #7CFF4C; }
      .small { font-size: 14px; fill: rgba(244,246,248,0.65); }
      .muted { fill: rgba(244,246,248,0.55); }
      .strokeW { stroke: rgba(244,246,248,0.85); }
    ]]></style>

    <!-- Background gradients -->
    <radialGradient id="bg" cx="0" cy="0" r="1" gradientUnits="userSpaceOnUse" gradientTransform="translate(460 190) rotate(20) scale(980 580)">
      <stop offset="0" stop-color="#2A2A1C"/>
      <stop offset="1" stop-color="#14140F"/>
    </radialGradient>

    <radialGradient id="v" cx="0" cy="0" r="1" gradientUnits="userSpaceOnUse" gradientTransform="translate(1080 250) rotate(90) scale(360 700)">
      <stop offset="0" stop-color="#000000" stop-opacity="0"/>
      <stop offset="1" stop-color="#000000" stop-opacity="0.55"/>
    </radialGradient>

    <!-- Grain -->
    <filter id="grain" x="-20%" y="-20%" width="140%" height="140%">
      <feTurbulence type="fractalNoise" baseFrequency="0.9" numOctaves="2" stitchTiles="stitch" result="noise"/>
      <feColorMatrix type="matrix" values="
        1 0 0 0 0
        0 1 0 0 0
        0 0 1 0 0
        0 0 0 0.07 0" in="noise" result="grain"/>
      <feBlend mode="overlay" in="SourceGraphic" in2="grain"/>
    </filter>

    <!-- Subtle glow for green -->
    <filter id="glowGreen" x="-40%" y="-40%" width="180%" height="180%">
      <feGaussianBlur stdDeviation="3.2" result="b"/>
      <feColorMatrix in="b" type="matrix"
        values="0 0 0 0 0.1
                0 0 0 0 1
                0 0 0 0 0.3
                0 0 0 1 0" result="g"/>
      <feMerge>
        <feMergeNode in="g"/>
        <feMergeNode in="SourceGraphic"/>
      </feMerge>
    </filter>

    <!-- Soft shadow -->
    <filter id="shadow" x="-30%" y="-30%" width="160%" height="160%">
      <feDropShadow dx="0" dy="6" stdDeviation="10" flood-color="#000000" flood-opacity="0.45"/>
    </filter>

    <!-- Pixel pattern -->
    <pattern id="pixels" width="14" height="14" patternUnits="userSpaceOnUse">
      <rect x="0" y="0" width="14" height="14" fill="none"/>
      <rect x="1" y="1" width="2" height="2" fill="rgba(244,246,248,0.08)"/>
    </pattern>
  </defs>

  <!-- Background -->
  <rect width="1600" height="520" fill="url(#bg)"/>
  <rect width="1600" height="520" fill="url(#pixels)" opacity="0.75"/>
  <rect width="1600" height="520" fill="url(#v)"/>
  <rect width="1600" height="520" filter="url(#grain)" opacity="1"/>

  <!-- Top nav -->
  <g transform="translate(72,40)" class="mono">
    <!-- logo mark -->
    <g transform="translate(0,2)">
      <path d="M12 0 L24 8 L12 16 L0 8 Z" fill="#F4F6F8" opacity="0.92"/>
      <path d="M30 4 L44 12 L30 20 L16 12 Z" fill="#F4F6F8" opacity="0.72"/>
    </g>
    <text x="58" y="16" class="mono" style="font-size:22px;font-weight:900;fill:#F4F6F8;opacity:0.92;">Dhaya</text>

    <!-- nav items -->
    <g transform="translate(520,0)">
      <text x="0" y="16" class="navActive mono">About</text>
      <text x="120" y="16" class="nav mono">Projects</text>
      <text x="260" y="16" class="nav mono">Writing</text>
      <text x="380" y="16" class="nav mono">Contact</text>
    </g>

    <!-- right buttons (visual only) -->
    <g transform="translate(1310,-10)">
      <rect x="0" y="0" width="56" height="44" rx="10" fill="rgba(0,0,0,0.25)" stroke="rgba(244,246,248,0.35)"/>
      <circle cx="28" cy="20" r="8" stroke="rgba(244,246,248,0.75)" stroke-width="2" fill="none"/>
      <path d="M16 36 C20 29, 36 29, 40 36" stroke="rgba(244,246,248,0.75)" stroke-width="2" fill="none"/>

      <g transform="translate(70,0)">
        <rect x="0" y="0" width="170" height="44" rx="10" fill="rgba(0,0,0,0.25)" stroke="rgba(244,246,248,0.35)"/>
        <text x="64" y="28" class="mono" style="font-size:16px;font-weight:900;fill:#F4F6F8;opacity:0.9;">CONTACT</text>
        <path d="M140 14 h18 v18 h-18 z" stroke="rgba(244,246,248,0.65)" fill="none"/>
        <path d="M146 18 l8 8" stroke="rgba(244,246,248,0.65)"/>
        <path d="M154 18 l-8 8" stroke="rgba(244,246,248,0.65)"/>
      </g>
    </g>
  </g>

  <!-- Left content -->
  <g transform="translate(88,140)" class="mono">
    <text class="title mono" x="0" y="0" dominant-baseline="hanging">ML Systems</text>
    <text class="title mono" x="0" y="74" dominant-baseline="hanging">for Real Work</text>

    <text class="sub mono" x="0" y="174">Recommenders, LLM tooling, scalable inference,</text>
    <text class="sub mono" x="0" y="206">and GPU-aware performance engineering.</text>

    <!-- CTA buttons (visual only) -->
    <g transform="translate(0,260)" filter="url(#shadow)">
      <rect x="0" y="0" width="188" height="54" rx="10" fill="rgba(244,246,248,0.08)" stroke="rgba(244,246,248,0.55)"/>
      <text x="60" y="34" class="mono" style="font-size:16px;font-weight:900;fill:#F4F6F8;opacity:0.9;">REPOS</text>
      <path d="M148 18 h18 v18 h-18 z" stroke="rgba(244,246,248,0.6)" fill="none"/>
      <path d="M154 22 l8 8" stroke="rgba(244,246,248,0.6)"/>
      <path d="M162 22 l-8 8" stroke="rgba(244,246,248,0.6)"/>
    </g>

    <g transform="translate(208,260)" filter="url(#shadow)">
      <rect x="0" y="0" width="238" height="54" rx="10" fill="#7CFF4C" opacity="0.72" filter="url(#glowGreen)"/>
      <rect x="0" y="0" width="238" height="54" rx="10" fill="none" stroke="rgba(0,0,0,0.35)"/>
      <text x="62" y="34" class="mono" style="font-size:16px;font-weight:900;fill:#0B0E08;">EMAIL</text>
      <path d="M180 18 h18 v18 h-18 z" stroke="rgba(0,0,0,0.55)" fill="none"/>
      <path d="M186 22 l8 8" stroke="rgba(0,0,0,0.55)"/>
      <path d="M194 22 l-8 8" stroke="rgba(0,0,0,0.55)"/>
    </g>

    <!-- “signals -> ...” line -->
    <g transform="translate(0,356)" opacity="0.9">
      <text class="small mono muted" x="0" y="0">signals</text>
      <text class="small mono muted" x="58" y="0">→</text>
      <text class="small mono muted" x="82" y="0">context</text>
      <text class="small mono muted" x="150" y="0">→</text>
      <text class="small mono muted" x="174" y="0">insight</text>
      <text class="small mono muted" x="236" y="0">→</text>
      <text class="small mono muted" x="260" y="0">shipped</text>
    </g>

    <!-- used by line -->
    <g transform="translate(0,430)" opacity="0.75">
      <text class="mono" x="0" y="0" style="font-size:16px;font-weight:800;fill:rgba(244,246,248,0.72);">Used by builders</text>
      <text class="mono" x="0" y="22" style="font-size:16px;font-weight:800;fill:rgba(244,246,248,0.72);">at leading teams</text>
    </g>
  </g>

  <!-- Right illustration (chip + LLM) -->
  <g transform="translate(950,118)">
    <!-- chip frame -->
    <g transform="translate(90,14)">
      <rect x="0" y="0" width="360" height="300" rx="18" fill="rgba(0,0,0,0.18)" stroke="rgba(244,246,248,0.55)"/>

      <!-- pins top -->
      <g opacity="0.75">
        <g transform="translate(36,-14)">
          <rect x="0" y="0" width="18" height="30" fill="rgba(244,246,248,0.75)"/>
          <rect x="34" y="0" width="18" height="30" fill="rgba(244,246,248,0.75)"/>
          <rect x="68" y="0" width="18" height="30" fill="rgba(244,246,248,0.75)"/>
          <rect x="102" y="0" width="18" height="30" fill="rgba(244,246,248,0.75)"/>
          <rect x="136" y="0" width="18" height="30" fill="rgba(244,246,248,0.75)"/>
          <rect x="170" y="0" width="18" height="30" fill="rgba(244,246,248,0.75)"/>
          <rect x="204" y="0" width="18" height="30" fill="rgba(244,246,248,0.75)"/>
          <rect x="238" y="0" width="18" height="30" fill="rgba(244,246,248,0.75)"/>
        </g>
        <!-- pins bottom -->
        <g transform="translate(36,284)">
          <rect x="0" y="0" width="18" height="30" fill="rgba(244,246,248,0.75)"/>
          <rect x="34" y="0" width="18" height="30" fill="rgba(244,246,248,0.75)"/>
          <rect x="68" y="0" width="18" height="30" fill="rgba(244,246,248,0.75)"/>
          <rect x="102" y="0" width="18" height="30" fill="rgba(244,246,248,0.75)"/>
          <rect x="136" y="0" width="18" height="30" fill="rgba(244,246,248,0.75)"/>
          <rect x="170" y="0" width="18" height="30" fill="rgba(244,246,248,0.75)"/>
          <rect x="204" y="0" width="18" height="30" fill="rgba(244,246,248,0.75)"/>
          <rect x="238" y="0" width="18" height="30" fill="rgba(244,246,248,0.75)"/>
        </g>
        <!-- pins left -->
        <g transform="translate(-14,44)">
          <rect x="0" y="0" width="30" height="18" fill="rgba(244,246,248,0.75)"/>
          <rect x="0" y="42" width="30" height="18" fill="rgba(244,246,248,0.75)"/>
          <rect x="0" y="84" width="30" height="18" fill="rgba(244,246,248,0.75)"/>
          <rect x="0" y="126" width="30" height="18" fill="rgba(244,246,248,0.75)"/>
          <rect x="0" y="168" width="30" height="18" fill="rgba(244,246,248,0.75)"/>
        </g>
        <!-- pins right -->
        <g transform="translate(344,44)">
          <rect x="0" y="0" width="30" height="18" fill="rgba(244,246,248,0.75)"/>
          <rect x="0" y="42" width="30" height="18" fill="rgba(244,246,248,0.75)"/>
          <rect x="0" y="84" width="30" height="18" fill="rgba(244,246,248,0.75)"/>
          <rect x="0" y="126" width="30" height="18" fill="rgba(244,246,248,0.75)"/>
          <rect x="0" y="168" width="30" height="18" fill="rgba(244,246,248,0.75)"/>
        </g>
      </g>

      <!-- inner chip -->
      <rect x="76" y="74" width="208" height="152" rx="14" fill="rgba(0,0,0,0.20)" stroke="rgba(244,246,248,0.85)" stroke-width="2"/>
      <text x="180" y="110" text-anchor="middle" class="mono" style="font-size:18px;font-weight:900;fill:rgba(244,246,248,0.9);">CUDA</text>
      <text x="180" y="134" text-anchor="middle" class="mono" style="font-size:18px;font-weight:900;fill:rgba(244,246,248,0.9);">CORES</text>

      <!-- pixel core -->
      <g transform="translate(114,150)" opacity="0.9">
        <rect x="0" y="0" width="14" height="14" fill="#F4F6F8"/>
        <rect x="24" y="0" width="14" height="14" fill="#F4F6F8"/>
        <rect x="48" y="0" width="14" height="14" fill="#F4F6F8"/>
        <rect x="72" y="0" width="14" height="14" fill="#F4F6F8"/>
        <rect x="96" y="0" width="14" height="14" fill="#F4F6F8"/>

        <rect x="0" y="24" width="14" height="14" fill="#F4F6F8"/>
        <rect x="24" y="24" width="14" height="14" fill="#F4F6F8"/>
        <rect x="48" y="24" width="14" height="14" fill="#F4F6F8"/>
        <rect x="72" y="24" width="14" height="14" fill="#F4F6F8"/>
        <rect x="96" y="24" width="14" height="14" fill="#F4F6F8"/>

        <rect x="0" y="48" width="14" height="14" fill="#F4F6F8"/>
        <rect x="24" y="48" width="14" height="14" fill="#F4F6F8"/>
        <rect x="48" y="48" width="14" height="14" fill="#F4F6F8"/>
        <rect x="72" y="48" width="14" height="14" fill="#F4F6F8"/>
        <rect x="96" y="48" width="14" height="14" fill="#F4F6F8"/>
      </g>

      <!-- wires to LLM -->
      <g transform="translate(360,136)" opacity="0.9">
        <path d="M0 0 H80" stroke="rgba(244,246,248,0.85)" stroke-width="3"/>
        <path d="M0 26 H80" stroke="rgba(244,246,248,0.85)" stroke-width="3"/>
        <path d="M0 52 H80" stroke="rgba(244,246,248,0.85)" stroke-width="3"/>
        <circle cx="0" cy="0" r="5" fill="#F4F6F8"/>
        <circle cx="0" cy="26" r="5" fill="#F4F6F8"/>
        <circle cx="0" cy="52" r="5" fill="#F4F6F8"/>
      </g>
    </g>

    <!-- LLM box -->
    <g transform="translate(640,160)">
      <rect x="0" y="0" width="120" height="120" rx="14" fill="rgba(0,0,0,0.18)" stroke="rgba(244,246,248,0.85)" stroke-width="2"/>
      <text x="60" y="64" text-anchor="middle" class="mono" style="font-size:22px;font-weight:900;fill:rgba(244,246,248,0.9);">LLM</text>
    </g>
  </g>

  <!-- Bottom logos (text placeholders, minimal) -->
  <g transform="translate(520,464)" class="mono" opacity="0.55">
    <text x="0" y="0" style="font-size:22px;font-weight:900;">NVIDIA</text>
    <text x="170" y="0" style="font-size:22px;font-weight:900;">Hugging Face</text>
    <text x="410" y="0" style="font-size:22px;font-weight:900;">runway</text>
    <text x="560" y="0" style="font-size:22px;font-weight:900;">together.ai</text>
  </g>
</svg>
